<svg width="6" height="7" viewBox="0 0 6 7" fill="none" xmlns="http://www.w3.org/2000/svg">
<path fill-rule="evenodd" clip-rule="evenodd" d="M2.74308 3.13495C3.0531 3.13495 3.35617 3.04302 3.61394 2.87079C3.87171 2.69855 4.07261 2.45375 4.19125 2.16733C4.30989 1.88091 4.34093 1.56574 4.28045 1.26168C4.21997 0.957616 4.07068 0.678315 3.85146 0.4591C3.63225 0.239884 3.35295 0.0906003 3.04888 0.0301188C2.74482 -0.0303626 2.42966 0.000680579 2.14324 0.119319C1.85682 0.237958 1.61202 0.438864 1.43978 0.696634C1.26755 0.954404 1.17561 1.25746 1.17561 1.56748C1.17561 1.9832 1.34075 2.38189 1.63471 2.67585C1.92867 2.96981 2.32736 3.13495 2.74308 3.13495ZM3.91584 3.53395L3.33018 5.8779L2.93831 4.21238L3.33018 3.52668H2.15457L2.54644 4.21238L2.15457 5.8779L1.57033 3.53395C1.14806 3.55271 0.749252 3.73348 0.456804 4.03866C0.164356 4.34385 0.000756134 4.74999 0 5.17267V5.6821C7.5254e-05 5.83785 0.0619352 5.98721 0.171999 6.09741C0.282064 6.20761 0.431342 6.26964 0.587091 6.26991H4.89765C5.05363 6.26995 5.20322 6.20805 5.31358 6.09783C5.42393 5.98761 5.48602 5.83808 5.48617 5.6821V5.17267C5.48541 4.74999 5.32181 4.34385 5.02937 4.03866C4.73692 3.73348 4.33811 3.55271 3.91584 3.53395Z" fill="white"/>
</svg>
