<svg width="7" height="6" viewBox="0 0 7 6" fill="none" xmlns="http://www.w3.org/2000/svg">
<path fill-rule="evenodd" clip-rule="evenodd" d="M5.87541 3.21065H3.23492L4.99334 4.97336C5.02582 5.00622 5.06971 5.0253 5.11589 5.02663C5.16207 5.02795 5.20698 5.0114 5.24129 4.98046C5.68283 4.5645 5.96976 4.01073 6.05494 3.41013C6.05774 3.38494 6.05517 3.35947 6.04741 3.33533C6.03965 3.3112 6.02688 3.28898 6.00993 3.27014C5.99297 3.2513 5.97221 3.23624 5.94903 3.22599C5.92584 3.21574 5.90076 3.21051 5.87541 3.21065ZM5.70013 2.48817C5.65498 1.8437 5.37873 1.23717 4.92216 0.780078C4.46559 0.322986 3.85939 0.0460549 3.21497 0.000166296C3.19066 -0.000881708 3.16638 0.00303164 3.14364 0.0116816C3.12089 0.0203316 3.10016 0.0335337 3.08268 0.050472C3.06521 0.0674103 3.05138 0.0877394 3.04203 0.110206C3.03268 0.132672 3.028 0.156809 3.02829 0.181141V2.67628H5.51917C5.54361 2.67652 5.56783 2.67176 5.59037 2.6623C5.6129 2.65284 5.63327 2.63889 5.65022 2.62128C5.66717 2.60367 5.68034 2.58276 5.68892 2.55988C5.69751 2.53699 5.70131 2.51259 5.70013 2.48817ZM2.49392 3.21065V0.565879C2.49424 0.540604 2.48918 0.515576 2.47909 0.492403C2.46899 0.469231 2.45408 0.448463 2.43536 0.431487C2.41663 0.414511 2.39451 0.401696 2.37046 0.393914C2.34641 0.386133 2.32099 0.383542 2.29587 0.38633C1.64274 0.479532 1.04714 0.810956 0.623621 1.31681C0.200102 1.82267 -0.0214364 2.46723 0.00163679 3.12656C0.0338894 3.82218 0.332938 4.47862 0.83662 4.95948C1.3403 5.44034 2.00988 5.70866 2.70624 5.70864C3.24647 5.70216 3.77189 5.53117 4.21246 5.21846C4.2327 5.20287 4.24939 5.18312 4.26139 5.16057C4.27339 5.13801 4.28043 5.11315 4.28205 5.08765C4.28367 5.06215 4.27982 5.0366 4.27076 5.01271C4.26171 4.98882 4.24767 4.96714 4.22956 4.94912L2.49392 3.21065Z" fill="white"/>
</svg>
