<svg width="20" height="20" viewBox="0 0 20 20" fill="none" xmlns="http://www.w3.org/2000/svg">
<path d="M14.168 2.50001H17.5013C17.7223 2.50001 17.9343 2.58781 18.0906 2.74409C18.2468 2.90037 18.3346 3.11233 18.3346 3.33334V16.6667C18.3346 16.8877 18.2468 17.0997 18.0906 17.2559C17.9343 17.4122 17.7223 17.5 17.5013 17.5H2.5013C2.28029 17.5 2.06833 17.4122 1.91205 17.2559C1.75577 17.0997 1.66797 16.8877 1.66797 16.6667V3.33334C1.66797 3.11233 1.75577 2.90037 1.91205 2.74409C2.06833 2.58781 2.28029 2.50001 2.5013 2.50001H5.83464V0.833344H7.5013V2.50001H12.5013V0.833344H14.168V2.50001ZM12.5013 4.16668H7.5013V5.83334H5.83464V4.16668H3.33464V7.50001H16.668V4.16668H14.168V5.83334H12.5013V4.16668ZM16.668 9.16668H3.33464V15.8333H16.668V9.16668ZM5.0013 11.6667H6.66797V13.3333H5.0013V11.6667ZM8.33464 11.6667H15.0013V13.3333H8.33464V11.6667Z" fill="#0F1324" fill-opacity="0.6"/>
</svg>
