<svg width="7" height="4" viewBox="0 0 7 4" fill="none" xmlns="http://www.w3.org/2000/svg">
<path fill-rule="evenodd" clip-rule="evenodd" d="M6.65223 0.927082L3.67065 0.0358227C3.5075 -0.0119409 3.33373 -0.0119409 3.17058 0.0358227L0.188882 0.927082C0.134999 0.940048 0.0871029 0.970386 0.052858 1.01326C0.018613 1.05614 0 1.10908 0 1.16359C0 1.21809 0.018613 1.271 0.052858 1.31388C0.0871029 1.35676 0.134999 1.38709 0.188882 1.40006L0.708759 1.55618C0.592157 1.69338 0.524956 1.86457 0.5176 2.04316C0.467129 2.06885 0.424408 2.10711 0.393702 2.15411C0.362997 2.20111 0.345382 2.25519 0.342621 2.31097C0.339861 2.36675 0.352048 2.42229 0.377967 2.47199C0.403887 2.52169 0.442633 2.56382 0.490328 2.59421L0.21758 3.78836C0.212163 3.81274 0.212409 3.83803 0.218299 3.86231C0.224189 3.88659 0.235571 3.90924 0.251602 3.92861C0.267632 3.94797 0.287899 3.96356 0.310894 3.97417C0.33389 3.98479 0.359025 3.99017 0.384431 3.98993H0.984111C1.00953 3.99019 1.03468 3.98481 1.05769 3.9742C1.0807 3.9636 1.10098 3.94803 1.11702 3.92867C1.13307 3.9093 1.14446 3.88663 1.15036 3.86234C1.15625 3.83805 1.1565 3.81275 1.15108 3.78836L0.878334 2.59421C0.92537 2.56428 0.963714 2.52291 0.98963 2.47409C1.01555 2.42528 1.02815 2.37069 1.02622 2.31567C1.02428 2.26064 1.00787 2.20705 0.978593 2.16011C0.94931 2.11317 0.90815 2.07449 0.859125 2.04782C0.863279 1.97179 0.885434 1.89779 0.923827 1.83165C0.962221 1.76552 1.01579 1.70907 1.08028 1.66685L3.1707 2.29132C3.3337 2.34006 3.50777 2.34006 3.67077 2.29132L6.65247 1.40123C6.70609 1.38778 6.75363 1.35717 6.78757 1.31422C6.82151 1.27127 6.83993 1.21844 6.8399 1.16407C6.83987 1.10969 6.82141 1.05686 6.78742 1.01395C6.75344 0.971031 6.70587 0.94048 6.65223 0.927082ZM3.77062 2.60937C3.54205 2.67736 3.29811 2.67736 3.06955 2.60937L1.5194 2.14569L1.36785 3.32468C1.36785 3.69283 2.28665 3.98993 3.42008 3.98993C4.55352 3.98993 5.47231 3.69283 5.47231 3.32468L5.32076 2.14569L3.77062 2.60937Z" fill="white"/>
</svg>
