<svg width="4" height="6" viewBox="0 0 4 6" fill="none" xmlns="http://www.w3.org/2000/svg">
<path fill-rule="evenodd" clip-rule="evenodd" d="M1.12879 1.89095C1.13135 2.03531 1.17652 2.1757 1.25863 2.29446C1.34075 2.41321 1.45613 2.50504 1.59028 2.5584C1.72444 2.61177 1.87138 2.62431 2.01263 2.59441C2.15388 2.56451 2.28314 2.49352 2.38416 2.39037C2.48518 2.28722 2.55345 2.15651 2.5804 2.01466C2.60735 1.87282 2.59177 1.72616 2.53561 1.59315C2.47945 1.46014 2.38523 1.3467 2.26478 1.26709C2.14434 1.18747 2.00305 1.14523 1.85867 1.14569C1.76175 1.14649 1.66594 1.16642 1.57674 1.20434C1.48754 1.24227 1.40672 1.29744 1.3389 1.36669C1.27109 1.43594 1.21761 1.5179 1.18156 1.60787C1.1455 1.69784 1.12757 1.79403 1.12879 1.89095ZM1.85867 0C1.36148 0.0044029 0.886395 0.206071 0.537864 0.560668C0.189334 0.915265 -0.00410924 1.39376 6.62174e-05 1.89095C-0.000351417 1.98921 0.00684263 2.08736 0.0215835 2.1845C0.104517 3.04519 0.860182 4.64686 1.83814 5.66572C2.63212 4.77209 3.22929 3.72146 3.59087 2.58206C3.67583 2.36153 3.71964 2.12729 3.72011 1.89095C3.72207 1.64456 3.67547 1.4002 3.58298 1.17182C3.49049 0.943436 3.35391 0.735514 3.18106 0.55992C3.0082 0.384326 2.80245 0.244501 2.57555 0.14843C2.34865 0.0523583 2.10506 0.00191987 1.85867 0Z" fill="#333333"/>
</svg>
