<svg width="4" height="7" viewBox="0 0 4 7" fill="none" xmlns="http://www.w3.org/2000/svg">
<path fill-rule="evenodd" clip-rule="evenodd" d="M2.64354 6.25115C2.69246 6.26566 2.7451 6.26056 2.79031 6.2369C2.82188 6.2195 2.84817 6.1939 2.86641 6.1628L3.29247 5.42039C3.30875 5.39207 3.31754 5.36006 3.31801 5.3274C3.31849 5.29474 3.31063 5.26249 3.29518 5.23371C3.28368 5.21199 3.26816 5.19265 3.24944 5.17671L2.50104 4.54831C2.47176 4.52327 2.43559 4.50769 2.39728 4.50362C2.35897 4.49955 2.32032 4.50718 2.28644 4.5255C2.28057 4.5282 2.27503 4.53154 2.26991 4.53547L1.74808 4.8846C1.23541 4.42196 0.899972 3.79512 0.799473 3.11192L1.38015 2.87253L1.39754 2.86397C1.43141 2.84579 1.45908 2.81789 1.47698 2.78387C1.49488 2.74984 1.5022 2.71125 1.498 2.67303L1.38999 1.70118C1.38742 1.6772 1.38015 1.65396 1.36861 1.63279C1.35315 1.60394 1.3307 1.57943 1.30332 1.5615C1.27593 1.54358 1.24449 1.53282 1.21186 1.53019L0.356876 1.47319C0.313379 1.47034 0.270199 1.48232 0.234382 1.50716C0.198565 1.53201 0.172226 1.56826 0.159658 1.61C-0.126347 2.55484 -0.025338 3.57458 0.440471 4.44495C0.906279 5.31532 1.69874 5.96502 2.64354 6.25115ZM1.94857 1.39483C1.9311 1.38444 1.91152 1.3781 1.89127 1.37628C1.87102 1.37447 1.85062 1.37721 1.83158 1.38432C1.81253 1.39143 1.79532 1.40273 1.78122 1.41737C1.76712 1.43201 1.75647 1.44961 1.75008 1.46891L1.72158 1.55726C1.71259 1.58528 1.71299 1.61547 1.72271 1.64324C1.73243 1.67102 1.75094 1.69487 1.77544 1.71117C1.82377 1.7438 1.86342 1.78771 1.89098 1.83911C1.91854 1.8905 1.93317 1.94782 1.93362 2.00613C1.93359 2.0357 1.94319 2.06448 1.96095 2.08813C1.97871 2.11178 2.00367 2.12902 2.03208 2.13724L2.12143 2.16147C2.14099 2.16705 2.16156 2.16811 2.1816 2.16458C2.20164 2.16105 2.22061 2.153 2.23708 2.14106C2.25355 2.12912 2.26709 2.11359 2.27668 2.09564C2.28627 2.0777 2.29165 2.05782 2.29243 2.03749C2.2977 1.90937 2.26854 1.78215 2.20796 1.66912C2.14739 1.5561 2.05762 1.46138 1.94801 1.39483H1.94857ZM2.37322 0.00973394C2.35614 0.0028632 2.33784 -0.000430557 2.31943 4.50579e-05C2.30103 0.000520673 2.28291 0.00475592 2.26621 0.0124997C2.24951 0.0202435 2.23457 0.0313238 2.22232 0.0450627C2.21006 0.0588016 2.20075 0.0749186 2.19495 0.0923939L2.16646 0.177889C2.15566 0.210305 2.15765 0.245629 2.17204 0.276622C2.18642 0.307615 2.21211 0.331939 2.24383 0.344618C2.63378 0.502156 2.95605 0.791578 3.15444 1.16242C3.35283 1.53325 3.41474 1.96197 3.32938 2.37379C3.32236 2.4072 3.32836 2.44201 3.34616 2.47115C3.36396 2.50028 3.39221 2.52153 3.42514 2.53053L3.51178 2.55474C3.52949 2.55975 3.54804 2.56109 3.56629 2.55866C3.58454 2.55622 3.6021 2.55008 3.61788 2.5406C3.63366 2.53112 3.64733 2.5185 3.65805 2.50353C3.66877 2.48857 3.67631 2.47157 3.68021 2.45358C3.78486 1.95749 3.71112 1.4404 3.47195 0.993356C3.23279 0.546309 2.84355 0.197978 2.37279 0.00973394H2.37322ZM2.15663 0.696584C2.13936 0.688927 2.12069 0.684967 2.10181 0.684964C2.08293 0.684961 2.06425 0.688915 2.04699 0.696566C2.02973 0.704218 2.01426 0.715398 2.00158 0.72939C1.9889 0.743382 1.97929 0.759869 1.97337 0.7778L1.94487 0.863295C1.93433 0.894583 1.93579 0.928672 1.94895 0.958949C1.96212 0.989226 1.98605 1.01354 2.01612 1.02717C2.23228 1.125 2.41011 1.29143 2.52204 1.50064C2.63396 1.70985 2.67371 1.95014 2.63513 2.18425C2.62983 2.21695 2.63679 2.25045 2.65467 2.27832C2.67256 2.3062 2.7001 2.3265 2.73203 2.33531L2.81895 2.35952C2.83714 2.36458 2.85618 2.36579 2.87486 2.36305C2.89353 2.36032 2.91143 2.35369 2.9274 2.34362C2.94336 2.33356 2.95705 2.32027 2.96758 2.30461C2.97811 2.28894 2.98524 2.27124 2.98853 2.25265C3.04292 1.93761 2.99056 1.61343 2.83975 1.33153C2.68894 1.04963 2.44832 0.826172 2.15606 0.696584H2.15663Z" fill="#333333"/>
</svg>
