<svg width="6" height="6" viewBox="0 0 6 6" fill="none" xmlns="http://www.w3.org/2000/svg">
<path fill-rule="evenodd" clip-rule="evenodd" d="M3.12931 3.93864L3.05136 3.89303L3.06077 3.99422L3.08086 5.15558L3.09981 5.27955L3.17249 5.17694L3.46746 4.78507L3.6708 5.0772L3.68976 5.09858H4.02776L3.97418 5.01735L3.70557 4.61979L4.16898 4.49011L4.2901 4.45734L4.18379 4.40176L3.12931 3.93864ZM2.56146 0C1.87966 0.0071542 1.22821 0.283027 0.74861 0.767683C0.269013 1.25234 0 1.90664 0 2.58848C0 3.27032 0.269013 3.92462 0.74861 4.40928C1.22821 4.89393 1.87966 5.16979 2.56146 5.17694C2.63461 5.17815 2.70778 5.17531 2.78062 5.1684L2.83434 5.16127L2.83006 5.11425L2.78589 4.8036L2.78062 4.76371L2.7343 4.76514C2.70794 4.76799 2.68472 4.77368 2.66306 4.77368C2.62729 4.77368 2.59566 4.78507 2.56089 4.78507C2.10848 4.7785 1.66967 4.6294 1.3069 4.35901C2.91328 3.77049 4.08562 2.98247 4.66088 2.11181C4.70142 2.26823 4.72262 2.42904 4.724 2.59062C4.72494 3.1259 4.52687 3.64241 4.16826 4.03981L4.13663 4.08399L4.18308 4.11391L4.44955 4.27636L4.48318 4.30343L4.50855 4.26069C4.82756 3.88624 5.03308 3.42853 5.10098 2.94133C5.16889 2.45413 5.09635 1.95767 4.89189 1.51027C4.68743 1.06286 4.35954 0.683083 3.94673 0.415561C3.53393 0.148038 3.05335 0.00387422 2.56146 0ZM2.27504 0.860693C2.32889 0.724586 2.33812 0.574891 2.3014 0.433199C2.38688 0.414255 2.47394 0.403286 2.56146 0.400427C2.85566 0.403498 3.14596 0.468047 3.41374 0.589943C3.04035 1.00082 2.60667 1.35252 2.12755 1.63302C2.07696 1.49907 2.03378 1.35515 1.99474 1.20981C2.11501 1.11779 2.21119 0.998004 2.27504 0.860693ZM1.90953 0.515842C1.92211 0.544798 1.92877 0.575976 1.92911 0.607547C1.92946 0.639117 1.92348 0.670447 1.91152 0.69967C1.85062 0.809834 1.76389 0.90357 1.65877 0.97282C1.55366 1.04207 1.4333 1.08475 1.30804 1.09723C1.21624 1.10336 1.12441 1.08569 1.04143 1.04593C1.28522 0.803591 1.58259 0.622007 1.90953 0.515842ZM0.787644 1.36086C0.954618 1.47122 1.15614 1.51681 1.35436 1.4891C1.45477 1.48113 1.55308 1.45608 1.64505 1.41501C1.67902 1.55712 1.72302 1.69663 1.77672 1.83252C1.34716 2.07482 0.891669 2.26794 0.418857 2.40822C0.448506 2.03295 0.575629 1.67192 0.787644 1.36086ZM0.970893 4.05976C0.660434 3.71639 0.468732 3.28223 0.424132 2.82147C0.95197 2.67788 1.46006 2.46967 1.93689 2.20159C2.13313 2.60978 2.41502 2.9709 2.76338 3.26035C2.19134 3.58058 1.59137 3.84815 0.970893 4.05976ZM3.11449 3.03093C2.75389 2.76287 2.46694 2.40797 2.28031 1.99925C2.83993 1.67769 3.34495 1.26934 3.77654 0.789444C4.08659 0.997267 4.33317 1.28675 4.48903 1.62591C4.25961 2.10755 3.79078 2.59061 3.11449 3.03093Z" fill="#333333"/>
</svg>
