<svg width="6" height="5" viewBox="0 0 6 5" fill="none" xmlns="http://www.w3.org/2000/svg">
<path fill-rule="evenodd" clip-rule="evenodd" d="M3.4342 3.26463C3.4342 3.30998 3.41618 3.35347 3.38412 3.38554C3.35205 3.41761 3.30856 3.43562 3.26321 3.43562H2.23295C2.18742 3.43577 2.14369 3.41785 2.11136 3.38579C2.07903 3.35373 2.06076 3.31016 2.06053 3.26463V2.74879H0V4.29489C0.00325552 4.4303 0.0584988 4.55926 0.154274 4.65503C0.25005 4.75081 0.379008 4.80605 0.514415 4.8093H4.98031C5.11597 4.80641 5.24528 4.75133 5.34136 4.65552C5.43744 4.5597 5.49288 4.43054 5.49615 4.29489V2.74879H3.4342V3.26463ZM4.98031 1.03168H4.12105V0.515842C4.11815 0.380185 4.06307 0.250874 3.96726 0.154796C3.87145 0.0587177 3.74228 0.00326964 3.60663 0H1.8881C1.75257 0.00365026 1.62364 0.0592157 1.5279 0.155213C1.43217 0.251211 1.37696 0.380307 1.37368 0.515842V1.03168H0.514415C0.379008 1.03494 0.25005 1.09018 0.154274 1.18596C0.0584988 1.28173 0.00325552 1.41069 0 1.5461V2.40537H5.49615V1.5461C5.49288 1.41045 5.43744 1.28128 5.34136 1.18547C5.24528 1.08966 5.11597 1.03458 4.98031 1.03168ZM3.4342 1.03168H2.06053V0.688259H3.4342V1.03168Z" fill="white"/>
</svg>
