<svg width="32" height="32" viewBox="0 0 32 32" fill="none" xmlns="http://www.w3.org/2000/svg">
<path d="M26.6673 29.3333H24.0007V26.6667C24.0007 25.6058 23.5792 24.5884 22.8291 23.8382C22.0789 23.0881 21.0615 22.6667 20.0007 22.6667H12.0007C10.9398 22.6667 9.92237 23.0881 9.17222 23.8382C8.42208 24.5884 8.00065 25.6058 8.00065 26.6667V29.3333H5.33398V26.6667C5.33398 24.8986 6.03636 23.2029 7.28661 21.9526C8.53685 20.7024 10.2325 20 12.0007 20H20.0007C21.7688 20 23.4645 20.7024 24.7147 21.9526C25.9649 23.2029 26.6673 24.8986 26.6673 26.6667V29.3333ZM16.0007 17.3333C14.9501 17.3333 13.9098 17.1264 12.9392 16.7244C11.9686 16.3223 11.0867 15.7331 10.3438 14.9902C9.60093 14.2473 9.01165 13.3654 8.60961 12.3948C8.20758 11.4242 8.00065 10.3839 8.00065 9.33333C8.00065 8.28275 8.20758 7.24247 8.60961 6.27186C9.01165 5.30126 9.60093 4.41934 10.3438 3.67647C11.0867 2.93361 11.9686 2.34433 12.9392 1.94229C13.9098 1.54025 14.9501 1.33333 16.0007 1.33333C18.1224 1.33333 20.1572 2.17618 21.6575 3.67647C23.1578 5.17676 24.0007 7.2116 24.0007 9.33333C24.0007 11.4551 23.1578 13.4899 21.6575 14.9902C20.1572 16.4905 18.1224 17.3333 16.0007 17.3333ZM16.0007 14.6667C17.4151 14.6667 18.7717 14.1048 19.7719 13.1046C20.7721 12.1044 21.334 10.7478 21.334 9.33333C21.334 7.91884 20.7721 6.56229 19.7719 5.56209C18.7717 4.5619 17.4151 3.99999 16.0007 3.99999C14.5862 3.99999 13.2296 4.5619 12.2294 5.56209C11.2292 6.56229 10.6673 7.91884 10.6673 9.33333C10.6673 10.7478 11.2292 12.1044 12.2294 13.1046C13.2296 14.1048 14.5862 14.6667 16.0007 14.6667Z" fill="#00318B"/>
</svg>
