<svg width="5" height="510" viewBox="0 0 5 510" fill="none" xmlns="http://www.w3.org/2000/svg">
<path d="M2.56592 0H1.71094V510H2.56592V0Z" fill="#333333"/>
<path d="M4.27494 141.137C4.27494 139.957 3.31796 139 2.13747 139C0.956977 139 0 139.957 0 141.137V151.112C0 152.293 0.956977 153.25 2.13747 153.25C3.31796 153.25 4.27494 152.293 4.27494 151.112V141.137Z" fill="#EB632C"/>
<path d="M4.27884 85.9265C4.27884 84.746 3.32187 83.7891 2.14137 83.7891C0.960884 83.7891 0.00390625 84.746 0.00390625 85.9265V95.9014C0.00390625 97.0819 0.960884 98.0389 2.14137 98.0389C3.32187 98.0389 4.27884 97.0819 4.27884 95.9014V85.9265Z" fill="#EB632C"/>
<path d="M4.27884 25.5086C4.27884 24.3281 3.32187 23.3711 2.14137 23.3711C0.960884 23.3711 0.00390625 24.3281 0.00390625 25.5086V63.983C0.00390625 65.1635 0.960884 66.1205 2.14137 66.1205C3.32187 66.1205 4.27884 65.1635 4.27884 63.983V25.5086Z" fill="#EB632C"/>
<path d="M2.13776 274.068C3.31841 274.068 4.27552 273.111 4.27552 271.931C4.27552 270.75 3.31841 269.793 2.13776 269.793C0.957107 269.793 0 270.75 0 271.931C0 273.111 0.957107 274.068 2.13776 274.068Z" fill="#EB632C"/>
<path d="M2.13776 300.147C3.31841 300.147 4.27552 299.19 4.27552 298.009C4.27552 296.828 3.31841 295.871 2.13776 295.871C0.957107 295.871 0 296.828 0 298.009C0 299.19 0.957107 300.147 2.13776 300.147Z" fill="#EB632C"/>
<path d="M4.27494 246.137C4.27494 244.957 3.31796 244 2.13747 244C0.956977 244 0 244.957 0 246.137V256.112C0 257.293 0.956977 258.25 2.13747 258.25C3.31796 258.25 4.27494 257.293 4.27494 256.112V246.137Z" fill="#EB632C"/>
<path d="M4.27494 330.137C4.27494 328.957 3.31796 328 2.13747 328C0.956977 328 0 328.957 0 330.137V340.112C0 341.293 0.956977 342.25 2.13747 342.25C3.31796 342.25 4.27494 341.293 4.27494 340.112V330.137Z" fill="#EB632C"/>
<path d="M2.13776 412.076C3.31841 412.076 4.27552 411.119 4.27552 409.939C4.27552 408.758 3.31841 407.801 2.13776 407.801C0.957107 407.801 0 408.758 0 409.939C0 411.119 0.957107 412.076 2.13776 412.076Z" fill="#EB632C"/>
<path d="M2.13776 435.299C3.31841 435.299 4.27552 434.342 4.27552 433.161C4.27552 431.981 3.31841 431.023 2.13776 431.023C0.957107 431.023 0 431.981 0 433.161C0 434.342 0.957107 435.299 2.13776 435.299Z" fill="#EB632C"/>
<path d="M4.27494 385.137C4.27494 383.957 3.31796 383 2.13747 383C0.956977 383 0 383.957 0 385.137V395.112C0 396.293 0.956977 397.25 2.13747 397.25C3.31796 397.25 4.27494 396.293 4.27494 395.112V385.137Z" fill="#EB632C"/>
<path d="M2.26209 206.479C3.51141 206.479 4.52419 205.522 4.52419 204.341C4.52419 203.16 3.51141 202.203 2.26209 202.203C1.01277 202.203 0 203.16 0 204.341C0 205.522 1.01277 206.479 2.26209 206.479Z" fill="#EB632C"/>
<path d="M2.27938 170.436C3.53824 170.436 4.55875 169.479 4.55875 168.298C4.55875 167.117 3.53824 166.16 2.27938 166.16C1.02051 166.16 0 167.117 0 168.298C0 169.479 1.02051 170.436 2.27938 170.436Z" fill="#EB632C"/>
</svg>
