<svg width="5" height="510" viewBox="0 0 5 510" fill="none" xmlns="http://www.w3.org/2000/svg">
<path d="M2.56592 0H1.71094V510H2.56592V0Z" fill="#666666"/>
<path d="M2.13776 386.596C3.31841 386.596 4.27552 385.639 4.27552 384.458C4.27552 383.277 3.31841 382.32 2.13776 382.32C0.957107 382.32 0 383.277 0 384.458C0 385.639 0.957107 386.596 2.13776 386.596Z" fill="#EB632C"/>
<path d="M2.13776 413.311C3.31841 413.311 4.27552 412.354 4.27552 411.173C4.27552 409.992 3.31841 409.035 2.13776 409.035C0.957107 409.035 0 409.992 0 411.173C0 412.354 0.957107 413.311 2.13776 413.311Z" fill="#EB632C"/>
<path d="M2.13776 439.955C3.31841 439.955 4.27552 438.998 4.27552 437.817C4.27552 436.637 3.31841 435.68 2.13776 435.68C0.957107 435.68 0 436.637 0 437.817C0 438.998 0.957107 439.955 2.13776 439.955Z" fill="#EB632C"/>
<path d="M2.13776 359.951C3.31841 359.951 4.27552 358.994 4.27552 357.814C4.27552 356.633 3.31841 355.676 2.13776 355.676C0.957107 355.676 0 356.633 0 357.814C0 358.994 0.957107 359.951 2.13776 359.951Z" fill="#EB632C"/>
<path d="M4.27494 332.731C4.27494 331.551 3.31796 330.594 2.13747 330.594C0.956977 330.594 0 331.551 0 332.731V342.706C0 343.887 0.956977 344.844 2.13747 344.844C3.31796 344.844 4.27494 343.887 4.27494 342.706V332.731Z" fill="#EB632C"/>
<path d="M2.13776 292.608C3.31841 292.608 4.27552 291.65 4.27552 290.47C4.27552 289.289 3.31841 288.332 2.13776 288.332C0.957107 288.332 0 289.289 0 290.47C0 291.65 0.957107 292.608 2.13776 292.608Z" fill="#EB632C"/>
<path d="M2.13776 258.065C3.31841 258.065 4.27552 257.107 4.27552 255.927C4.27552 254.746 3.31841 253.789 2.13776 253.789C0.957107 253.789 0 254.746 0 255.927C0 257.107 0.957107 258.065 2.13776 258.065Z" fill="#EB632C"/>
<path d="M2.13776 203.201C3.31841 203.201 4.27552 202.244 4.27552 201.064C4.27552 199.883 3.31841 198.926 2.13776 198.926C0.957107 198.926 0 199.883 0 201.064C0 202.244 0.957107 203.201 2.13776 203.201Z" fill="#EB632C"/>
<path d="M2.13776 181.26C3.31841 181.26 4.27552 180.303 4.27552 179.122C4.27552 177.941 3.31841 176.984 2.13776 176.984C0.957107 176.984 0 177.941 0 179.122C0 180.303 0.957107 181.26 2.13776 181.26Z" fill="#EB632C"/>
<path d="M2.13776 163.443C3.31841 163.443 4.27552 162.486 4.27552 161.306C4.27552 160.125 3.31841 159.168 2.13776 159.168C0.957107 159.168 0 160.125 0 161.306C0 162.486 0.957107 163.443 2.13776 163.443Z" fill="#EB632C"/>
<path d="M4.27494 134.235C4.27494 133.055 3.31796 132.098 2.13747 132.098C0.956977 132.098 0 133.055 0 134.235V144.21C0 145.39 0.956977 146.347 2.13747 146.347C3.31796 146.347 4.27494 145.39 4.27494 144.21V134.235Z" fill="#EB632C"/>
<path d="M4.27494 229.278C4.27494 228.098 3.31796 227.141 2.13747 227.141C0.956977 227.141 0 228.098 0 229.278V239.253C0 240.433 0.956977 241.39 2.13747 241.39C3.31796 241.39 4.27494 240.433 4.27494 239.253V229.278Z" fill="#EB632C"/>
</svg>
