<svg width="24" height="24" viewBox="0 0 24 24" fill="none" xmlns="http://www.w3.org/2000/svg">
<path d="M8.6854 4.00037L11.2924 1.39337C11.4799 1.2059 11.7342 1.10059 11.9994 1.10059C12.2646 1.10059 12.5189 1.2059 12.7064 1.39337L15.3134 4.00037H18.9994C19.2646 4.00037 19.519 4.10573 19.7065 4.29327C19.894 4.4808 19.9994 4.73516 19.9994 5.00037V8.68637L22.6064 11.2934C22.7939 11.4809 22.8992 11.7352 22.8992 12.0004C22.8992 12.2655 22.7939 12.5198 22.6064 12.7074L19.9994 15.3144V19.0004C19.9994 19.2656 19.894 19.5199 19.7065 19.7075C19.519 19.895 19.2646 20.0004 18.9994 20.0004H15.3134L12.7064 22.6074C12.5189 22.7948 12.2646 22.9002 11.9994 22.9002C11.7342 22.9002 11.4799 22.7948 11.2924 22.6074L8.6854 20.0004H4.9994C4.73418 20.0004 4.47983 19.895 4.29229 19.7075C4.10475 19.5199 3.9994 19.2656 3.9994 19.0004V15.3144L1.3924 12.7074C1.20492 12.5198 1.09961 12.2655 1.09961 12.0004C1.09961 11.7352 1.20492 11.4809 1.3924 11.2934L3.9994 8.68637V5.00037C3.9994 4.73516 4.10475 4.4808 4.29229 4.29327C4.47983 4.10573 4.73418 4.00037 4.9994 4.00037H8.6854ZM5.9994 6.00037V9.51537L3.5144 12.0004L5.9994 14.4854V18.0004H9.5144L11.9994 20.4854L14.4844 18.0004H17.9994V14.4854L20.4844 12.0004L17.9994 9.51537V6.00037H14.4844L11.9994 3.51537L9.5144 6.00037H5.9994ZM11.9994 16.0004C10.9385 16.0004 9.92111 15.5789 9.17097 14.8288C8.42082 14.0787 7.9994 13.0612 7.9994 12.0004C7.9994 10.9395 8.42082 9.92209 9.17097 9.17195C9.92111 8.4218 10.9385 8.00037 11.9994 8.00037C13.0603 8.00037 14.0777 8.4218 14.8278 9.17195C15.578 9.92209 15.9994 10.9395 15.9994 12.0004C15.9994 13.0612 15.578 14.0787 14.8278 14.8288C14.0777 15.5789 13.0603 16.0004 11.9994 16.0004ZM11.9994 14.0004C12.5298 14.0004 13.0385 13.7897 13.4136 13.4146C13.7887 13.0395 13.9994 12.5308 13.9994 12.0004C13.9994 11.4699 13.7887 10.9612 13.4136 10.5862C13.0385 10.2111 12.5298 10.0004 11.9994 10.0004C11.469 10.0004 10.9603 10.2111 10.5852 10.5862C10.2101 10.9612 9.9994 11.4699 9.9994 12.0004C9.9994 12.5308 10.2101 13.0395 10.5852 13.4146C10.9603 13.7897 11.469 14.0004 11.9994 14.0004Z" fill="#0F1324" fill-opacity="0.6"/>
</svg>
