<svg width="20" height="20" viewBox="0 0 20 20" fill="none" xmlns="http://www.w3.org/2000/svg">
<path fill-rule="evenodd" clip-rule="evenodd" d="M5.83398 4.16666L10.834 4.16666C12.4448 4.16666 13.7507 5.47249 13.7507 7.08332C13.7507 8.69415 12.4448 9.99999 10.834 9.99999H5.83398L5.83398 4.16666Z" stroke="#4B465C" stroke-width="1.5" stroke-linecap="round" stroke-linejoin="round"/>
<path fill-rule="evenodd" clip-rule="evenodd" d="M5.83398 4.16666L10.834 4.16666C12.4448 4.16666 13.7507 5.47249 13.7507 7.08332C13.7507 8.69415 12.4448 9.99999 10.834 9.99999H5.83398L5.83398 4.16666Z" stroke="white" stroke-opacity="0.2" stroke-width="1.5" stroke-linecap="round" stroke-linejoin="round"/>
<path d="M10.834 10H11.6673C13.2781 10 14.584 11.3058 14.584 12.9167C14.584 14.5275 13.2781 15.8333 11.6673 15.8333H5.83398L5.83398 10" stroke="#4B465C" stroke-width="1.5" stroke-linecap="round" stroke-linejoin="round"/>
<path d="M10.834 10H11.6673C13.2781 10 14.584 11.3058 14.584 12.9167C14.584 14.5275 13.2781 15.8333 11.6673 15.8333H5.83398L5.83398 10" stroke="white" stroke-opacity="0.2" stroke-width="1.5" stroke-linecap="round" stroke-linejoin="round"/>
</svg>
