<svg width="20" height="20" viewBox="0 0 20 20" fill="none" xmlns="http://www.w3.org/2000/svg">
<path d="M14.166 5.00002H18.3327V6.66669H16.666V17.5C16.666 17.721 16.5782 17.933 16.4219 18.0893C16.2657 18.2456 16.0537 18.3334 15.8327 18.3334H4.16602C3.945 18.3334 3.73304 18.2456 3.57676 18.0893C3.42048 17.933 3.33268 17.721 3.33268 17.5L3.33268 6.66669H1.66602L1.66602 5.00002H5.83268V2.50002C5.83268 2.27901 5.92048 2.06704 6.07676 1.91076C6.23304 1.75448 6.445 1.66669 6.66602 1.66669L13.3327 1.66669C13.5537 1.66669 13.7657 1.75448 13.9219 1.91076C14.0782 2.06704 14.166 2.27901 14.166 2.50002V5.00002ZM14.9993 6.66669L4.99935 6.66669L4.99935 16.6667H14.9993L14.9993 6.66669ZM7.49935 9.16669H9.16602L9.16602 14.1667L7.49935 14.1667L7.49935 9.16669ZM10.8327 9.16669H12.4993V14.1667H10.8327V9.16669ZM7.49935 3.33335V5.00002L12.4993 5.00002V3.33335L7.49935 3.33335Z" fill="#0F1324" fill-opacity="0.6"/>
</svg>
