<svg width="20" height="20" viewBox="0 0 20 20" fill="none" xmlns="http://www.w3.org/2000/svg">
<path d="M9.16602 5.00001L16.666 5.00001" stroke="#4B465C" stroke-width="1.5" stroke-linecap="round" stroke-linejoin="round"/>
<path d="M9.16602 5.00001L16.666 5.00001" stroke="white" stroke-opacity="0.2" stroke-width="1.5" stroke-linecap="round" stroke-linejoin="round"/>
<path d="M9.16602 10L16.666 10" stroke="#4B465C" stroke-width="1.5" stroke-linecap="round" stroke-linejoin="round"/>
<path d="M9.16602 10L16.666 10" stroke="white" stroke-opacity="0.2" stroke-width="1.5" stroke-linecap="round" stroke-linejoin="round"/>
<path d="M10 15H16.6667" stroke="#4B465C" stroke-width="1.5" stroke-linecap="round" stroke-linejoin="round"/>
<path d="M10 15H16.6667" stroke="white" stroke-opacity="0.2" stroke-width="1.5" stroke-linecap="round" stroke-linejoin="round"/>
<path d="M3.33398 13.3333C3.33398 12.4128 4.08018 11.6667 5.00065 11.6667C5.92113 11.6667 6.66732 12.4128 6.66732 13.3333C6.66732 13.8258 6.25065 14.1667 5.83398 14.5833L3.33398 16.6667H6.66732" stroke="#4B465C" stroke-width="1.5" stroke-linecap="round" stroke-linejoin="round"/>
<path d="M3.33398 13.3333C3.33398 12.4128 4.08018 11.6667 5.00065 11.6667C5.92113 11.6667 6.66732 12.4128 6.66732 13.3333C6.66732 13.8258 6.25065 14.1667 5.83398 14.5833L3.33398 16.6667H6.66732" stroke="white" stroke-opacity="0.2" stroke-width="1.5" stroke-linecap="round" stroke-linejoin="round"/>
<path d="M5.00065 8.33334L5.00065 3.33334L3.33398 5.00001" stroke="#4B465C" stroke-width="1.5" stroke-linecap="round" stroke-linejoin="round"/>
<path d="M5.00065 8.33334L5.00065 3.33334L3.33398 5.00001" stroke="white" stroke-opacity="0.2" stroke-width="1.5" stroke-linecap="round" stroke-linejoin="round"/>
</svg>
